<svg id="visual" viewBox="0 0 900 600" width="900" height="600" xmlns="http://www.w3.org/2000/svg" xmlns:xlink="http://www.w3.org/1999/xlink" version="1.1"><rect x="0" y="0" width="900" height="600" fill="#FFFFFF"></rect><path d="M0 337L129 333L257 343L386 293L514 347L643 387L771 354L900 364L900 601L771 601L643 601L514 601L386 601L257 601L129 601L0 601Z" fill="#4facf7"></path><path d="M0 318L129 408L257 348L386 316L514 349L643 299L771 289L900 384L900 601L771 601L643 601L514 601L386 601L257 601L129 601L0 601Z" fill="#45a5fa"></path><path d="M0 328L129 423L257 381L386 399L514 391L643 322L771 345L900 442L900 601L771 601L643 601L514 601L386 601L257 601L129 601L0 601Z" fill="#3e9efc"></path><path d="M0 455L129 442L257 352L386 445L514 439L643 390L771 362L900 438L900 601L771 601L643 601L514 601L386 601L257 601L129 601L0 601Z" fill="#3b97fd"></path><path d="M0 399L129 476L257 475L386 403L514 475L643 478L771 420L900 443L900 601L771 601L643 601L514 601L386 601L257 601L129 601L0 601Z" fill="#3d8ffe"></path><path d="M0 466L129 479L257 420L386 496L514 448L643 481L771 466L900 496L900 601L771 601L643 601L514 601L386 601L257 601L129 601L0 601Z" fill="#4487fe"></path><path d="M0 527L129 458L257 456L386 449L514 513L643 515L771 452L900 461L900 601L771 601L643 601L514 601L386 601L257 601L129 601L0 601Z" fill="#4d7efd"></path><path d="M0 488L129 544L257 494L386 549L514 541L643 535L771 485L900 548L900 601L771 601L643 601L514 601L386 601L257 601L129 601L0 601Z" fill="#5874fa"></path><path d="M0 562L129 552L257 541L386 510L514 571L643 568L771 518L900 523L900 601L771 601L643 601L514 601L386 601L257 601L129 601L0 601Z" fill="#6469f7"></path><path d="M0 561L129 542L257 578L386 541L514 543L643 541L771 584L900 577L900 601L771 601L643 601L514 601L386 601L257 601L129 601L0 601Z" fill="#715df2"></path></svg>